<?xml version="1.0" encoding="utf-8"?>
<!-- Generator: Adobe Illustrator 13.0.0, SVG Export Plug-In . SVG Version: 6.00 Build 14948)  -->
<!DOCTYPE svg PUBLIC "-//W3C//DTD SVG 1.0//EN" "http://www.w3.org/TR/2001/REC-SVG-20010904/DTD/svg10.dtd">
<svg version="1.0" id="Layer_1" xmlns="http://www.w3.org/2000/svg" xmlns:xlink="http://www.w3.org/1999/xlink" x="0px" y="0px"
	 width="500px" height="500px" viewBox="0 0 500 500" enable-background="new 0 0 500 500" xml:space="preserve">
<path d="M331.381,81.9l-32.352,118.953c7.998,8.143,13.994,18.249,17.219,29.528l119.273,32.438
	c0.311-4.401,0.479-8.841,0.479-13.32C436,175.875,393.332,112.224,331.381,81.9z M249.5,63
	c-73.284,0-136.684,42.275-167.174,103.763l119.322,32.452c8.622-8.208,19.346-14.222,31.29-17.146l32.204-118.409
	C259.984,63.23,254.769,63,249.5,63z M63.743,232.908C63.261,238.376,63,243.907,63,249.5c0,74.113,43.231,138.128,105.852,168.205
	l32.22-118.469c-9.407-9.16-16.216-20.962-19.243-34.212L63.743,232.908z M267.563,316.548l-32.34,118.913
	c4.712,0.356,9.473,0.539,14.277,0.539c74.452,0,138.705-43.631,168.608-106.715l-118.135-32.129
	C291.292,306.347,280.137,313.168,267.563,316.548z"/>
</svg>
